<svg preserveAspectRatio="none" width="100%" height="100%" overflow="visible" style="display: block;" viewBox="0 0 48.7063 48.0001" fill="none" xmlns="http://www.w3.org/2000/svg">
<g id="Group 23">
<path id="Subtract" d="M29.6448 43.7646C29.6448 46.1037 27.7478 48 25.4085 48H16.9368C15.44 47.9998 14.1256 47.2228 13.3723 46.0508L29.6448 35.6602V43.7646ZM44.47 0C46.8094 0 48.7063 1.89626 48.7063 4.23535V43.7646C48.7063 46.1037 46.8094 48 44.47 48H35.9983C33.659 47.9999 31.763 46.1037 31.763 43.7646V34.3076L38.3225 30.1191C42.7552 27.2884 42.7551 20.7127 38.3225 17.8818L31.763 13.6924V4.23535C31.763 1.89631 33.659 7.27579e-05 35.9983 0H44.47ZM29.6448 14.8516V33.1475L12.7063 43.9648C12.7032 43.8985 12.7014 43.8318 12.7014 43.7646V4.23535C12.7014 4.16791 12.7032 4.10085 12.7063 4.03418L29.6448 14.8516ZM37.1829 19.666C40.3117 21.6641 40.3116 26.3358 37.1829 28.334L31.763 31.7949V16.2041L37.1829 19.666ZM25.4085 0C27.7478 0 29.6448 1.89626 29.6448 4.23535V12.3398L13.3723 1.94824C14.1257 0.776652 15.4403 0.000161905 16.9368 0H25.4085Z" fill="white"/>
<path id="Polygon 4" d="M37.1827 19.6662C40.3116 21.6643 40.3116 26.3358 37.1827 28.334L7.60861 47.2205C4.29297 49.3379 -1.57083e-07 46.8926 0 42.8866L1.48114e-06 5.11358C1.63823e-06 1.10755 4.29298 -1.33775 7.60862 0.779668L37.1827 19.6662Z" fill="url(#paint0_linear_0_4)"/>
</g>
<defs>
<linearGradient id="paint0_linear_0_4" x1="0.823068" y1="9.62362e-05" x2="37.3124" y2="47.738" gradientUnits="userSpaceOnUse">
<stop stop-color="#FF1B47"/>
<stop offset="1" stop-color="#C60027"/>
</linearGradient>
</defs>
</svg>
