<svg preserveAspectRatio="none" width="100%" height="100%" overflow="visible" style="display: block;" viewBox="0 0 16 16" fill="none" xmlns="http://www.w3.org/2000/svg">
<g id="Frame">
<path id="Vector" d="M2.92848 2.66758C2.6667 3.07765 2.6667 3.60811 2.6667 4.66903V11.3317C2.6667 12.3925 2.6667 12.923 2.92848 13.3331C2.97522 13.4063 3.02763 13.4758 3.08521 13.5409C3.40766 13.9051 3.9178 14.0509 4.9381 14.3423C5.96096 14.6345 6.4724 14.7806 6.8427 14.5615C6.90696 14.5235 6.9667 14.4784 7.0209 14.4271C7.33336 14.1313 7.33336 13.5995 7.33336 12.5359V3.46475C7.33336 2.40115 7.33336 1.86934 7.0209 1.57355C6.9667 1.52225 6.90696 1.47718 6.8427 1.43918C6.4724 1.22004 5.96096 1.36613 4.9381 1.65833C3.9178 1.94979 3.40766 2.09552 3.08521 2.45983C3.02763 2.52489 2.97522 2.59435 2.92848 2.66758Z" stroke="white" stroke-linecap="round" stroke-linejoin="round"/>
<path id="Vector_2" d="M7.33337 2.66636H8.67811C9.94591 2.66636 10.5798 2.66636 10.9736 3.05688C11.1932 3.27461 11.2904 3.56632 11.3334 3.99969M7.33337 13.333H8.67811C9.94591 13.333 10.5798 13.333 10.9736 12.9425C11.1932 12.7248 11.2904 12.4331 11.3334 11.9997" stroke="white" stroke-linecap="round" stroke-linejoin="round"/>
<path id="Vector_3" d="M14.0001 8.00033H9.33344M13.0001 6.33362C13.0001 6.33362 14.6668 7.56113 14.6668 8.00033C14.6668 8.43953 13.0001 9.66693 13.0001 9.66693" stroke="white" stroke-linecap="round" stroke-linejoin="round"/>
</g>
</svg>
