<svg preserveAspectRatio="none" width="100%" height="100%" overflow="visible" style="display: block;" viewBox="0 0 14 14" fill="none" xmlns="http://www.w3.org/2000/svg">
<g id="Frame" clip-path="url(#clip0_0_10)">
<path id="Vector" d="M8.20974 2.26629C8.64444 1.79532 8.86179 1.55984 9.09273 1.42249C9.64999 1.09105 10.3362 1.08075 10.9028 1.3953C11.1376 1.52566 11.3616 1.75451 11.8097 2.21222C12.2577 2.66993 12.4818 2.89878 12.6094 3.13865C12.9173 3.71743 12.9072 4.4184 12.5828 4.98769C12.4483 5.22362 12.2178 5.44565 11.7568 5.88969L6.27126 11.1731C5.39759 12.0146 4.96075 12.4354 4.41478 12.6486C3.86882 12.8619 3.26862 12.8462 2.06821 12.8148L1.90489 12.8105C1.53945 12.801 1.35672 12.7962 1.25051 12.6756C1.14429 12.5551 1.15879 12.369 1.18779 11.9967L1.20354 11.7946C1.28517 10.7468 1.32598 10.223 1.53058 9.75206C1.73517 9.28114 2.08809 8.89882 2.79392 8.13407L8.20974 2.26629Z" stroke="white" stroke-width="0.875" stroke-linejoin="round"/>
<path id="Vector_2" d="M7.58332 2.33332L11.6667 6.41665" stroke="white" stroke-width="0.875" stroke-linejoin="round"/>
<path id="Vector_3" d="M8.16676 12.8331H12.8334" stroke="white" stroke-width="0.875" stroke-linecap="round" stroke-linejoin="round"/>
</g>
<defs>
<clipPath id="clip0_0_10">
<rect width="14" height="14" fill="white"/>
</clipPath>
</defs>
</svg>
