<svg preserveAspectRatio="none" width="100%" height="100%" overflow="visible" style="display: block;" viewBox="0 0 10 10" fill="none" xmlns="http://www.w3.org/2000/svg">
<g id="Frame">
<path id="Vector" d="M1.66667 7.492V4.0448C1.66667 2.5309 1.66667 1.77395 2.15482 1.30364C2.64298 0.833333 3.42865 0.833333 5 0.833333C6.57133 0.833333 7.35704 0.833333 7.84517 1.30364C8.33333 1.77395 8.33333 2.5309 8.33333 4.0448V7.492C8.33333 8.45279 8.33333 8.93317 8.01133 9.10513C7.38771 9.43808 6.218 8.32717 5.6625 7.99267C5.34033 7.79867 5.17925 7.70167 5 7.70167C4.82075 7.70167 4.65967 7.79867 4.3375 7.99267C3.782 8.32717 2.61228 9.43808 1.98869 9.10513C1.66667 8.93317 1.66667 8.45279 1.66667 7.492Z" stroke="#7C7C7C" stroke-width="0.710205" stroke-linecap="round" stroke-linejoin="round"/>
</g>
</svg>
