<svg preserveAspectRatio="none" width="100%" height="100%" overflow="visible" style="display: block;" viewBox="0 0 27.8563 28" fill="none" xmlns="http://www.w3.org/2000/svg">
<g id="Frame">
<path id="Vector" d="M13.9282 7.4891C14.473 7.4891 14.9147 7.93077 14.9147 8.4756C14.9147 9.02042 14.473 9.4621 13.9282 9.4621C13.3833 9.4621 12.9417 9.02042 12.9417 8.4756C12.9417 7.93077 13.3833 7.4891 13.9282 7.4891Z" fill="#D2D2D2" stroke="#D2D2D2" stroke-width="1.47975" stroke-linecap="round" stroke-linejoin="round"/>
<path id="Vector_2" d="M13.9282 13.0135C14.473 13.0135 14.9147 13.4552 14.9147 14C14.9147 14.5448 14.473 14.9865 13.9282 14.9865C13.3833 14.9865 12.9417 14.5448 12.9417 14C12.9417 13.4552 13.3833 13.0135 13.9282 13.0135Z" fill="#D2D2D2" stroke="#D2D2D2" stroke-width="1.47975" stroke-linecap="round" stroke-linejoin="round"/>
<path id="Vector_3" d="M13.9282 18.5379C14.473 18.5379 14.9147 18.9796 14.9147 19.5244C14.9147 20.0692 14.473 20.5109 13.9282 20.5109C13.3833 20.5109 12.9417 20.0692 12.9417 19.5244C12.9417 18.9796 13.3833 18.5379 13.9282 18.5379Z" fill="#D2D2D2" stroke="#D2D2D2" stroke-width="1.47975" stroke-linecap="round" stroke-linejoin="round"/>
</g>
</svg>
