<svg preserveAspectRatio="none" width="100%" height="100%" overflow="visible" viewBox="0 0 60 60" fill="none" xmlns="http://www.w3.org/2000/svg">
<g id="Warning">
<path id="Vector" d="M50.826 42.2672L34.0875 13.1983C33.6692 12.4861 33.0721 11.8956 32.3553 11.4853C31.6385 11.075 30.8269 10.8592 30.001 10.8592C29.175 10.8592 28.3634 11.075 27.6466 11.4853C26.9298 11.8956 26.3327 12.4861 25.9144 13.1983L9.17595 42.2672C8.7735 42.956 8.5614 43.7394 8.5614 44.5372C8.5614 45.335 8.7735 46.1185 9.17595 46.8073C9.58888 47.5238 10.185 48.1175 10.9031 48.5275C11.6213 48.9376 12.4356 49.1491 13.2625 49.1406H46.7394C47.5657 49.1485 48.3792 48.9366 49.0966 48.5266C49.814 48.1166 50.4095 47.5232 50.8221 46.8073C51.2252 46.1188 51.4379 45.3356 51.4386 44.5378C51.4393 43.74 51.2278 42.9563 50.826 42.2672ZM28.4697 26.1718C28.4697 25.7657 28.631 25.3762 28.9182 25.0891C29.2054 24.8019 29.5948 24.6406 30.001 24.6406C30.4071 24.6406 30.7965 24.8019 31.0837 25.0891C31.3709 25.3762 31.5322 25.7657 31.5322 26.1718V33.8281C31.5322 34.2342 31.3709 34.6237 31.0837 34.9108C30.7965 35.198 30.4071 35.3593 30.001 35.3593C29.5948 35.3593 29.2054 35.198 28.9182 34.9108C28.631 34.6237 28.4697 34.2342 28.4697 33.8281V26.1718ZM30.001 43.0156C29.5467 43.0156 29.1026 42.8809 28.7249 42.6285C28.3472 42.3761 28.0528 42.0174 27.8789 41.5977C27.7051 41.178 27.6596 40.7161 27.7482 40.2706C27.8368 39.825 28.0556 39.4158 28.3768 39.0946C28.698 38.7733 29.1073 38.5546 29.5529 38.4659C29.9984 38.3773 30.4602 38.4228 30.8799 38.5967C31.2996 38.7705 31.6584 39.0649 31.9107 39.4426C32.1631 39.8203 32.2978 40.2644 32.2978 40.7187C32.2978 41.3279 32.0558 41.9121 31.6251 42.3428C31.1943 42.7736 30.6101 43.0156 30.001 43.0156Z" fill="#FFB700"/>
</g>
</svg>
