<svg preserveAspectRatio="none" width="100%" height="100%" overflow="visible" viewBox="0 0 14 14" fill="none" xmlns="http://www.w3.org/2000/svg">
<g id="Frame">
<path id="Vector" d="M2.33345 10.489V5.66295C2.33345 3.54349 2.33345 2.48376 3.01686 1.82533C3.70028 1.16689 4.80022 1.16689 7.00011 1.16689C9.19998 1.16689 10.3 1.16689 10.9833 1.82533C11.6668 2.48376 11.6668 3.54349 11.6668 5.66295V10.489C11.6668 11.8341 11.6668 12.5067 11.216 12.7474C10.3429 13.2135 8.70531 11.6583 7.92761 11.19C7.47658 10.9184 7.25106 10.7826 7.00011 10.7826C6.74916 10.7826 6.52365 10.9184 6.07261 11.19C5.29491 11.6583 3.6573 13.2135 2.78428 12.7474C2.33345 12.5067 2.33345 11.8341 2.33345 10.489Z" stroke="#7C7C7C" stroke-width="0.994287" stroke-linecap="round" stroke-linejoin="round"/>
</g>
</svg>
